<svg aria-hidden="true" style="position: absolute; width: 0px; height: 0px; overflow-x: hidden; overflow-y: hidden;" version="1.1" xmlns="http://www.w3.org/2000/svg"><defs><symbol id="icon-calendar" viewBox="0 0 32 32"><path fill="none" stroke="#407bff" style="" stroke-linejoin="round" stroke-linecap="round" stroke-miterlimit="4" stroke-width="1.6" d="M9 4v3m14-3v3M4 25V10c0-.796.316-1.56.88-2.12S6.204 7 7 7h18c.796 0 1.56.316 2.12.88S28 9.204 28 10v15M4 25c0 .796.316 1.56.88 2.12S6.204 28 7 28h18c.796 0 1.56-.316 2.12-.88S28 25.796 28 25M4 25V15c0-.796.316-1.56.88-2.12S6.204 12 7 12h18c.796 0 1.56.316 2.12.88S28 14.204 28 15v10m-12-8h.01v.01H16V17zm0 3h.01v.01H16V20zm0 3h.01v.01H16V23zm-3-3h.01v.01H13V20zm0 3h.01v.01H13V23zm-3-3h.01v.01H10V20zm0 3h.01v.01H10V23zm9-6h.01v.01H19V17zm0 3h.01v.01H19V20zm0 3h.01v.01H19V23zm3-6h.01v.01H22V17zm0 3h.01v.01H22V20z"/></symbol><symbol id="icon-presentation" viewBox="0 0 32 32"><path fill="none" stroke="#407bff" style="" stroke-linejoin="round" stroke-linecap="round" stroke-miterlimit="4" stroke-width="1.6" d="M5 4v15c0 .796.316 1.56.88 2.12S7.204 22 8 22h3M5 4H3m2 0h22M11 22h10m-10 0-1.333 4M27 4h2m-2 0v15c0 .796-.316 1.56-.88 2.12S24.796 22 24 22h-3m0 0 1.333 4M9.667 26h12.667M9.667 26 9 28m13.333-2L23 28M12 15v2m4-5v5m4-8v8"/></symbol><symbol id="icon-wrench" viewBox="0 0 32 32"><path fill="none" stroke="#407bff" style="" stroke-linejoin="round" stroke-linecap="round" stroke-miterlimit="4" stroke-width="1.6" d="M15.227 20.227 23 28a3.535 3.535 0 0 0 5.996-2.513A3.535 3.535 0 0 0 28 23l-7.835-7.837m-4.938 5.064 3.328-4.04c.423-.512.987-.835 1.61-1.02.734-.22 1.552-.252 2.325-.188a6 6 0 0 0 5.982-8.45l-4.368 4.37a4.01 4.01 0 0 1-3-3l4.368-4.37a6.008 6.008 0 0 0-7.912 2.943 6.01 6.01 0 0 0-.536 3.04c.12 1.435-.095 3.02-1.205 3.933l-.137.113m-.456 6.667L9.02 27.764a3.403 3.403 0 0 1-2.46 1.24A3.4 3.4 0 0 1 3 25.44c.024-.474.146-.937.36-1.36a3.39 3.39 0 0 1 .88-1.1l9.115-7.507L7.88 10H6L3 5l2-2 5 3v1.878l5.68 5.68-2.327 1.916M24.5 24.5 21 21M6.49 25.5h.01v.01h-.01v-.01z"/></symbol><symbol id="icon-presentation1" viewBox="0 0 32 32"><path fill="none" stroke="#407bff" style="" stroke-linejoin="round" stroke-linecap="round" stroke-miterlimit="4" stroke-width="1.6" d="M5 4v15c0 .796.316 1.56.88 2.12S7.204 22 8 22h3M5 4H3m2 0h22M11 22h10m-10 0-1.333 4M27 4h2m-2 0v15c0 .796-.316 1.56-.88 2.12S24.796 22 24 22h-3m0 0 1.333 4M9.667 26h12.667M9.667 26 9 28m13.333-2L23 28M12 15v2m4-5v5m4-8v8"/></symbol><symbol id="icon-glass" viewBox="0 0 25 32"><path fill="#407bff" style="" d="m.278.14 2.28 31.635v.086H22.2L24.48.24V.14H.277zm21.115 30.835H3.373L1.663 7.28h.94L4.148 28.16a.444.444 0 0 0 .43.407h.036a.422.422 0 0 0 .296-.15.465.465 0 0 0 .104-.32L3.47 7.278h19.633l-1.71 23.696zm1.77-24.583H3.404l-.34-4.616c-.01-.113-.063-.217-.146-.292s-.19-.116-.303-.114a.445.445 0 0 0-.4.474l.34 4.555H1.6l-.388-5.38h22.34l-.388 5.373z"/><path fill="#407bff" style="" d="M7.232 11.66c.283 0 .56-.084.796-.244s.42-.386.527-.652a1.467 1.467 0 0 0-.31-1.583c-.2-.202-.456-.34-.734-.397s-.565-.027-.826.083c-.262.11-.485.296-.643.535s-.24.52-.24.808c0 .385.15.755.42 1.027s.632.425 1.012.425zm0-2.024a.566.566 0 0 1 .554.684.583.583 0 0 1-.154.293.56.56 0 0 1-.963-.405c0-.152.058-.297.164-.405s.25-.168.4-.168z"/><path fill="#407bff" style="" d="M7.225 16.382c.004.287.09.566.25.803s.386.42.648.527c.262.107.55.133.827.074s.53-.2.728-.403a1.47 1.47 0 0 0-.232-2.23 1.42 1.42 0 0 0-1.345-.128 1.444 1.444 0 0 0-.773.797 1.45 1.45 0 0 0-.102.56zm1.99 0a.578.578 0 0 1-.348.53.552.552 0 0 1-.615-.125.586.586 0 0 1-.122-.624.57.57 0 0 1 .52-.354c.15 0 .294.06.4.167s.165.253.165.405z"/><path fill="#407bff" style="" d="M17.4 16.42a1.44 1.44 0 0 0 1.323-.897 1.467 1.467 0 0 0-.31-1.584 1.423 1.423 0 0 0-1.56-.315c-.263.11-.486.296-.644.535s-.242.52-.242.807c0 .385.15.755.42 1.027s.632.425 1.012.425zm0-2.02a.56.56 0 0 1 .522.355.58.58 0 0 1-.125.625.556.556 0 0 1-.617.12.564.564 0 0 1-.252-.214.582.582 0 0 1 .075-.72.558.558 0 0 1 .397-.166z"/><path fill="#407bff" style="" d="M12.413 13.68c.283 0 .56-.085.796-.245s.418-.386.526-.652c.108-.265.137-.557.082-.84s-.192-.54-.392-.743c-.2-.203-.455-.34-.733-.398s-.566-.027-.827.083c-.262.11-.485.296-.643.535s-.24.52-.24.807c0 .385.15.755.418 1.027s.634.425 1.013.425zm0-2.025a.56.56 0 0 1 .52.353.577.577 0 0 1-.41.78.565.565 0 0 1-.58-.244.578.578 0 0 1-.094-.317.57.57 0 0 1 .563-.602v.03z"/><path fill="#407bff" style="" d="M9.683 21.915c.006.236.08.465.214.658s.32.342.537.428a1.167 1.167 0 0 0 1.28-.278 1.207 1.207 0 0 0 .242-1.304c-.09-.218-.242-.403-.436-.534s-.42-.2-.654-.2c-.317.008-.617.14-.838.37s-.345.54-.345.86zm1.183-.32a.314.314 0 0 1 .29.198.326.326 0 0 1-.067.35.315.315 0 0 1-.345.07.325.325 0 0 1-.103-.522c.06-.06.14-.095.223-.095z"/><path fill="#407bff" style="" d="M15.404 20.58c.243.008.483-.058.688-.19s.368-.32.465-.547a1.24 1.24 0 0 0-.878-1.702 1.197 1.197 0 0 0-.71.076c-.224.097-.414.26-.545.466a1.245 1.245 0 0 0 .158 1.532c.218.223.51.353.82.364zm0-1.52c.084 0 .164.033.223.093a.322.322 0 0 1-.223.546.322.322 0 0 1-.122-.62.324.324 0 0 1 .123-.022z"/><path fill="#407bff" style="" d="M17.904 10.645c.24 0 .475-.072.674-.207a1.235 1.235 0 0 0 .516-1.263 1.233 1.233 0 0 0-.332-.63 1.204 1.204 0 0 0-1.867.186 1.24 1.24 0 0 0 .15 1.554c.23.23.538.36.86.36zm0-1.52a.305.305 0 0 1 .276.052.322.322 0 0 1-.132.57.305.305 0 0 1-.144-.006.305.305 0 0 1-.276-.05.32.32 0 0 1-.092-.4.317.317 0 0 1 .224-.172.305.305 0 0 1 .144.007z"/><path fill="#407bff" style="" d="M6.042 29.43a.44.44 0 0 0-.252.442.462.462 0 0 0 .213.347.444.444 0 0 0 .42.022 13.098 13.098 0 0 1 5.99-1.477c2.203.033 4.377.53 6.382 1.46a.435.435 0 0 0 .628-.296.454.454 0 0 0-.252-.51 16.56 16.56 0 0 0-6.758-1.54 13.924 13.924 0 0 0-6.37 1.55z"/></symbol><symbol id="icon-eye-open" viewBox="0 0 32 32"><path stroke-linejoin="round" stroke-linecap="round" stroke-miterlimit="4" stroke-width="1.3333" d="M2.715 16.43a1.35 1.35 0 0 1 0-.853C4.565 10.013 9.815 6 16 6c6.184 0 11.43 4.01 13.284 9.57.093.277.093.576 0 .853C27.436 21.987 22.187 26 16 26c-6.184 0-11.432-4.01-13.285-9.57z"/><path stroke-linejoin="round" stroke-linecap="round" stroke-miterlimit="4" stroke-width="1.3333" d="M20 16a4.005 4.005 0 0 1-4 4 4.005 4.005 0 0 1-4-4 4.005 4.005 0 0 1 4-4 4.005 4.005 0 0 1 4 4z"/></symbol><symbol id="icon-eye-closed" viewBox="0 0 32 32"><path stroke-linejoin="round" stroke-linecap="round" stroke-miterlimit="4" stroke-width="1.3333" d="M5.307 10.964A13.978 13.978 0 0 0 2.58 16C4.3 21.784 9.66 26 16 26c1.324 0 2.604-.184 3.817-.527M8.304 8.303A13.936 13.936 0 0 1 16 6c6.34 0 11.697 4.216 13.42 9.997a14.033 14.033 0 0 1-5.724 7.7M8.304 8.303 4 4m4.304 4.304 4.867 4.867m10.526 10.526L28 28m-4.304-4.304L18.83 18.83A3.996 3.996 0 0 0 20 16a4 4 0 0 0-4-4 4.017 4.017 0 0 0-2.83 1.172m5.658 5.656-5.655-5.655"/></symbol></defs></svg>