<svg width="102" height="48" viewBox="0 0 102 48" fill="none" xmlns="http://www.w3.org/2000/svg">
<g clip-path="url(#clip0_103_191)">
<path d="M36.235 36.8481C35.4525 37.643 36.494 38.4656 34.6466 40.5558C33.8773 41.4253 35.2144 44.0287 31.5087 43.9989C31.5087 43.9989 29.3568 45.9407 27.205 46.2065C25.0531 46.4722 24.157 46.1179 22.095 47.2659C20.0331 48.414 15.4607 46.471 13.5778 45.6324C11.6949 44.7939 10.9784 44.7052 9.36508 44.7052C7.75172 44.7052 8.37905 42.233 7.21321 41.1735C6.04737 40.114 4.70282 39.6733 4.61274 38.7025C4.52265 37.7318 3.62689 37.2898 3.71679 35.7886C3.8067 34.2873 2.28215 33.8466 2.10344 31.9923C1.92472 30.1381 2.90948 29.7857 2.55095 28.7262C2.19243 27.6667 2.10344 26.7845 2.64086 25.725C2.70476 25.5966 2.779 25.4735 2.86289 25.3569C3.32351 24.7103 3.76557 24.7605 4.07531 23.6945C4.43402 22.458 3.44799 21.9288 4.52392 21.3994C5.59986 20.87 5.95856 22.458 5.33015 24.0476C4.70173 25.6372 3.89514 27.1375 4.9718 27.4022C6.04847 27.6669 5.77912 24.4008 7.21357 22.8995C8.64803 21.3983 8.02089 21.0463 9.90286 19.5451C11.7848 18.0438 11.9648 18.6626 12.5921 17.0729C13.2195 15.4831 14.9912 13.8069 16.7962 13.0119C18.6011 12.217 19.4074 11.865 19.1377 10.5399C18.8679 9.21483 20.3728 9.21573 20.4282 7.80301C20.4835 6.39029 19.227 5.4195 18.1516 5.77273C17.0762 6.12595 15.9998 6.12577 16.3585 4.97882C16.7172 3.83187 18.9751 3.91933 20.0423 4.44854C21.1095 4.97775 22.0068 3.65481 23.4414 4.97882C24.876 6.30283 26.758 6.74459 26.4894 9.83544C26.2208 12.9263 25.952 13.9838 27.1167 14.161C28.2815 14.3383 27.2965 12.7483 27.2965 11.5129C27.2965 10.2774 29.3585 10.3646 29.8959 11.3356C30.4333 12.3066 29.7172 13.9838 30.2546 14.6026C30.792 15.2214 31.7791 15.1318 32.0478 16.0143C32.3164 16.8967 31.869 20.5169 33.1237 21.3117C34.3783 22.1065 34.1097 19.37 35.1857 20.2085C36.2616 21.047 36.5302 22.5474 35.9029 24.0485C35.4843 25.052 35.4414 27.5567 35.6845 29.7131C35.8026 30.78 35.991 31.7628 36.237 32.435C36.9779 34.4644 37.0176 36.0531 36.235 36.8481Z" fill="#9EBBFF"/>
<path d="M21.3739 14.3469C23.728 13.6148 25.7037 17.665 24.8845 19.4053C24.0654 21.1456 23.715 26.5139 26.7572 25.8463C29.7994 25.1788 27.5762 20.0159 29.2141 20.1198C30.852 20.2238 30.1503 24.9481 31.2034 26.446C32.2566 27.9438 35.8903 38.1997 30.0363 41.7719C24.1824 45.3441 15.8985 45.2289 12.7266 42.5783C11.4505 41.512 10.5268 40.3966 9.84638 39.3151C9.52298 38.8013 9.32861 38.394 9.19612 38.0368C8.91094 37.269 8.96081 36.9984 8.67326 36.228C8.48498 35.7318 8.24268 35.2571 7.95057 34.8122C7.31815 33.8547 7.03133 33.9669 6.44004 33.1332C6.24258 32.8549 5.6158 31.9146 5.55793 30.6481C5.54283 30.3164 5.50042 29.3897 5.90099 29.2245C6.35414 29.0377 6.9407 30.0044 7.54255 29.8037C7.85812 29.6983 7.99534 29.3332 8.08161 29.1047C8.33639 28.4277 8.08161 28.009 7.95913 27.0056C7.86485 26.2297 7.75166 25.2967 8.21391 24.5094C8.28962 24.3804 8.50783 23.9589 9.23179 23.5657C11.7784 22.1829 14.0653 23.4505 15.7303 20.9153C17.3954 18.3802 17.4276 18.2137 18.9913 17.548C20.5549 16.8822 19.1505 15.0383 21.3739 14.3469Z" fill="#C6D7FF"/>
<path d="M20.4393 48C18.7776 48 16.4563 47.3289 13.4206 45.9767C11.5707 45.1524 10.9144 45.0834 9.36514 45.0834C8.13997 45.0834 7.87863 43.9828 7.6688 43.0986C7.52047 42.4739 7.36706 41.8278 6.95266 41.4515C6.56702 41.1009 6.16391 40.8242 5.77408 40.5554C4.98606 40.0131 4.3056 39.5449 4.2308 38.7361C4.20131 38.4155 4.05317 38.1508 3.88156 37.8441C3.61093 37.3603 3.27407 36.7588 3.3334 35.7664C3.3698 35.1501 3.07388 34.7499 2.69861 34.2431C2.28695 33.6875 1.82032 33.0569 1.72077 32.0284C1.61886 30.9741 1.86254 30.3617 2.05837 29.8691C2.21852 29.4668 2.31516 29.2239 2.18703 28.8454C1.86291 27.8881 1.65198 26.8268 2.2975 25.5553C2.5694 25.02 2.85603 24.7687 3.08643 24.5668C3.34832 24.3374 3.53741 24.1725 3.70521 23.5901C3.82969 23.1609 3.7598 22.8429 3.69119 22.5356C3.58873 22.0736 3.46134 21.4985 4.35091 21.0605C4.79806 20.8403 5.23557 20.8766 5.55205 21.1598C6.12114 21.6705 6.17829 22.9424 5.688 24.1842C5.60192 24.4019 5.51256 24.618 5.42502 24.8293C5.0847 25.6537 4.69888 26.5856 4.86668 26.9117C4.87978 26.9372 4.91054 26.9967 5.06468 27.0347C5.07385 27.0376 5.08346 27.0388 5.09307 27.0384C5.26633 26.9784 5.47525 26.154 5.60046 25.6614C5.8507 24.6757 6.16209 23.4471 6.93337 22.6401C7.51884 22.0274 7.73723 21.6231 7.94815 21.232C8.24862 20.6765 8.53216 20.1503 9.66087 19.2507C10.3796 18.6772 10.8578 18.4037 11.2078 18.2035C11.7436 17.8965 11.8877 17.8141 12.2348 16.9354C12.8899 15.275 14.7013 13.5197 16.639 12.6665L16.6473 12.6629C18.526 11.8353 18.9619 11.6023 18.7612 10.6138C18.581 9.72668 19.0524 9.26611 19.4316 8.89621C19.7492 8.58618 20.0235 8.31844 20.044 7.78851C20.0664 7.20912 19.8184 6.67006 19.3803 6.3464C19.0354 6.09174 18.6318 6.01325 18.2727 6.13135C17.5839 6.35769 16.6606 6.5292 16.1751 6.06217C15.9798 5.87418 15.7893 5.51415 15.9914 4.8672C16.1212 4.45196 16.441 4.12706 16.9161 3.92759C17.8964 3.51541 19.3912 3.70268 20.2149 4.11093C20.5103 4.25752 20.7895 4.20591 21.2204 4.10967C21.8809 3.96218 22.7026 3.77867 23.7033 4.7025C24.0073 4.98297 24.3427 5.22956 24.667 5.46791C25.8625 6.34604 27.0987 7.255 26.8714 9.8661C26.8378 10.2525 26.8041 10.6073 26.7733 10.9328C26.5415 13.3768 26.5866 13.6969 27.175 13.786C27.2163 13.793 27.2583 13.7959 27.3002 13.7946C27.3253 13.6353 27.2183 13.2077 27.1457 12.9165C27.0365 12.4783 26.912 11.9817 26.912 11.5104C26.912 10.8975 27.2942 10.4351 27.9332 10.2751C28.6988 10.0828 29.7957 10.3647 30.2326 11.1532C30.5584 11.7414 30.5044 12.488 30.4565 13.1467C30.4217 13.6249 30.3824 14.167 30.5458 14.3546C30.7127 14.5466 30.9624 14.6593 31.2269 14.7788C31.6636 14.9759 32.2071 15.2222 32.4151 15.9044C32.5124 16.2245 32.5274 16.7587 32.5461 17.4351C32.5807 18.6756 32.6329 20.5503 33.3307 20.9921C33.4581 21.0729 33.5309 21.0833 33.5542 21.0766C33.6568 21.0471 33.8026 20.7342 33.8898 20.5471C34.0568 20.1886 34.2465 19.7815 34.6518 19.6858C34.8978 19.6275 35.1577 19.7037 35.4234 19.9102C36.6245 20.8471 36.9521 22.5266 36.2573 24.1906C35.6809 25.5691 35.8807 30.347 36.5969 32.3055C37.4198 34.5558 37.3902 36.2174 36.5115 37.1105C36.3079 37.3174 36.2857 37.5047 36.2551 37.9072C36.206 38.556 36.1384 39.4441 34.9368 40.8035C34.7866 40.9735 34.7508 41.3391 34.7127 41.7262C34.6099 42.7726 34.4554 44.3447 31.6553 44.376C31.1693 44.79 29.2395 46.336 27.254 46.5803C26.6434 46.6554 26.1286 46.6821 25.6741 46.7058C24.5261 46.7653 23.6966 46.8083 22.2851 47.5939C21.7993 47.8645 21.186 48 20.4393 48ZM4.91436 21.6736C4.8634 21.6736 4.79315 21.6892 4.69597 21.737C4.34036 21.9121 4.35018 21.9558 4.443 22.3748C4.51871 22.7171 4.62262 23.1859 4.445 23.7981C4.21515 24.5908 3.90121 24.8659 3.59765 25.132C3.38836 25.3153 3.19072 25.4885 2.98488 25.8938C2.49169 26.8651 2.59287 27.6521 2.91609 28.6067C3.13211 29.2451 2.95012 29.7026 2.77396 30.1451C2.59924 30.5845 2.40124 31.0823 2.48586 31.9569C2.56521 32.7793 2.94885 33.2972 3.31975 33.7981C3.72959 34.3517 4.15345 34.9241 4.10049 35.8112C4.05427 36.5855 4.29741 37.02 4.55547 37.4796C4.75075 37.8287 4.95276 38.1897 4.99698 38.668C5.0392 39.1269 5.55824 39.4839 6.21541 39.9361C6.60706 40.2049 7.05094 40.511 7.47479 40.8963C8.0619 41.43 8.25062 42.2251 8.41733 42.9266C8.65392 43.9219 8.80551 44.3273 9.36605 44.3273C10.9741 44.3273 11.7683 44.4101 13.738 45.2878C18.8483 47.5638 21.0013 47.4411 21.9078 46.9366C23.4764 46.0635 24.4286 46.0142 25.6341 45.9518C26.0756 45.9289 26.5759 45.9031 27.1592 45.8312C29.166 45.5841 31.23 43.7391 31.2505 43.7206C31.3213 43.6567 31.4139 43.6212 31.51 43.6212H31.5131C33.7538 43.6391 33.8444 42.7192 33.9491 41.6543C33.9991 41.1434 34.0466 40.6606 34.3582 40.3081C35.3925 39.1382 35.4465 38.425 35.49 37.8518C35.522 37.432 35.555 36.9977 35.9606 36.5854C36.6025 35.9329 36.5714 34.4667 35.8751 32.5624C35.0834 30.397 34.8969 25.4607 35.5475 23.9037C36.1091 22.5596 35.8735 21.2259 34.9469 20.5037C34.9112 20.474 34.8715 20.4491 34.829 20.4297C34.758 20.4978 34.6527 20.7238 34.5877 20.8632C34.4101 21.2446 34.2088 21.6766 33.77 21.8032C33.5059 21.8791 33.2186 21.8211 32.9157 21.6288C31.8767 20.9711 31.8225 19.0225 31.7788 17.4568C31.763 16.8858 31.7481 16.3457 31.6798 16.1225C31.5766 15.784 31.3313 15.6589 30.9067 15.4668C30.5941 15.3254 30.2396 15.1652 29.9629 14.8474C29.5942 14.4238 29.6412 13.7777 29.6909 13.0937C29.7331 12.5116 29.7768 11.9095 29.5589 11.5166C29.3174 11.0806 28.6015 10.8894 28.123 11.0095C27.6798 11.1208 27.6798 11.4154 27.6798 11.5122C27.6798 11.8917 27.7921 12.341 27.8913 12.7374C28.0566 13.398 28.1993 13.9684 27.87 14.3227C27.6893 14.5173 27.4161 14.5883 27.0583 14.5342C25.6809 14.3256 25.7904 13.1686 26.009 10.8634C26.0397 10.5408 26.0732 10.1869 26.1067 9.80248C26.2974 7.61038 25.3755 6.93278 24.208 6.0749C23.8666 5.824 23.5137 5.56468 23.1785 5.25519C22.4751 4.60573 21.9955 4.71254 21.3904 4.84802C20.9385 4.94892 20.4258 5.06307 19.8697 4.78727C19.2107 4.46039 17.9588 4.31272 17.2173 4.62419C16.9529 4.73512 16.7875 4.89211 16.726 5.09013C16.6601 5.30124 16.6548 5.46648 16.7123 5.52203C16.8139 5.6197 17.2485 5.67167 18.0307 5.41451C18.6321 5.21737 19.2924 5.33655 19.8418 5.74246C20.4814 6.21486 20.8439 6.99084 20.8119 7.81808C20.7798 8.64532 20.3323 9.08277 19.9729 9.43367C19.5965 9.80123 19.4198 9.99854 19.5148 10.4663C19.8424 12.0844 18.7586 12.563 16.9615 13.3535L16.9531 13.3573C15.2136 14.1234 13.5307 15.7439 12.9515 17.2103C12.5241 18.2924 12.2439 18.4863 11.5951 18.8578C11.2675 19.0456 10.8185 19.3028 10.1457 19.839C9.13856 20.6419 8.90197 21.0802 8.62789 21.5877C8.40404 22.0024 8.15016 22.4727 7.49427 23.1591C6.86021 23.8221 6.57557 24.944 6.34772 25.8454C6.21378 26.3734 6.09821 26.8293 5.93078 27.1687C5.60192 27.835 5.13184 27.8318 4.88105 27.7691C4.47266 27.6685 4.27684 27.4338 4.18457 27.2546C3.85826 26.6214 4.25609 25.6596 4.71653 24.5453C4.80261 24.3372 4.89052 24.1247 4.97496 23.9107C5.397 22.8422 5.2798 21.9367 5.03738 21.7193C5.0212 21.7037 5.00191 21.6916 4.98073 21.6837C4.95956 21.6759 4.93696 21.6724 4.91436 21.6736Z" fill="#407BFF"/>
<path d="M10.0136 18.4016C9.90858 18.4011 9.80395 18.3886 9.70186 18.3643C9.31768 18.2747 9.01703 18.0134 8.85524 17.6295C8.55277 16.9127 8.74004 15.8643 9.3437 14.8942C9.83508 14.1057 10.6997 13.3888 11.4632 12.7557C12.0248 12.2897 12.5551 11.8505 12.6905 11.567C12.8075 11.3222 12.8498 11.0464 12.8907 10.7797C12.9653 10.293 13.0498 9.74119 13.6427 9.48582C14.0484 9.31091 14.5405 9.38868 14.959 9.69406C15.1703 9.84732 15.343 10.0463 15.4639 10.2756C15.5935 10.0104 15.7028 9.65409 15.6677 9.2394C15.6495 9.02686 15.5926 8.77686 15.5374 8.53528C15.4022 7.94389 15.2746 7.38457 15.6402 7.0964C15.9072 6.88618 16.2275 6.84371 16.542 6.97704C17.1295 7.22597 17.6472 8.10213 17.7208 8.97148C17.8187 10.1283 16.8006 12.6785 14.004 13.3319C11.5183 13.9127 11.2775 15.4107 11.3553 16.253C11.4262 17.0211 11.1924 17.7559 10.7598 18.125C10.5541 18.3045 10.2884 18.4029 10.0136 18.4016ZM14.097 9.96072C14.0201 9.96009 13.9439 9.97516 13.8733 10.005C13.585 10.1292 13.5333 10.3851 13.46 10.8641C13.4152 11.1568 13.3644 11.4883 13.2116 11.8082C13.0225 12.2043 12.498 12.6394 11.8341 13.1899C11.1039 13.7953 10.2764 14.4813 9.83471 15.191C9.34097 15.9842 9.16135 16.877 9.38702 17.4132C9.47801 17.6304 9.62943 17.7652 9.83526 17.8134C10.0522 17.8643 10.2313 17.8263 10.3825 17.6973C10.6752 17.4476 10.8357 16.8881 10.7818 16.305C10.7055 15.4806 10.8546 13.4862 13.8707 12.7813C16.3311 12.2064 17.2307 10.0122 17.1466 9.01969C17.0862 8.30571 16.6592 7.64514 16.314 7.49891C16.1948 7.44837 16.1009 7.46055 16.0002 7.53977C15.9211 7.63331 16.0366 8.13958 16.0989 8.41181C16.1584 8.67238 16.2199 8.94173 16.2412 9.19334C16.3407 10.3702 15.5634 11.1503 15.5303 11.1826C15.4881 11.2242 15.4337 11.2518 15.3748 11.2616C15.3159 11.2714 15.2553 11.2629 15.2015 11.2373C15.1477 11.2117 15.1033 11.1703 15.0745 11.1187C15.0457 11.0672 15.0339 11.0081 15.0408 10.9496C15.0728 10.6808 14.9021 10.3598 14.6158 10.1509C14.446 10.026 14.2637 9.96072 14.097 9.96072Z" fill="#407BFF"/>
<path d="M34.9042 18.7363C34.84 18.7364 34.7759 18.7314 34.7126 18.7214C33.7844 18.5732 33.8727 17.3804 33.9311 16.5912C33.9435 16.4234 33.9551 16.2648 33.9551 16.1462C33.9551 15.994 33.7562 15.7718 33.5636 15.5568C33.1738 15.1211 32.6397 14.5243 32.94 13.6698C33.0584 13.3333 33.3931 13.1322 33.8585 13.1204C34.5932 13.1025 35.5814 13.5525 35.8991 14.3175C36.103 14.8078 36.1772 15.2426 36.2427 15.6258C36.3101 16.02 36.3681 16.3605 36.5521 16.662C36.7578 16.9994 36.7101 17.4326 36.4216 17.8526C36.1039 18.3154 35.5022 18.7363 34.9042 18.7363ZM33.9071 13.6867H33.8743C33.7738 13.6896 33.5347 13.7114 33.4841 13.855C33.3069 14.3593 33.5717 14.7077 33.9957 15.1811C34.271 15.4887 34.5309 15.7792 34.5309 16.1455C34.5309 16.2847 34.5186 16.4532 34.5053 16.6317C34.4621 17.2148 34.3961 18.0958 34.8046 18.1611C35.1564 18.2166 35.6682 17.9361 35.9448 17.5338C36.0193 17.4263 36.1796 17.1521 36.0582 16.953C35.8183 16.5587 35.7488 16.1512 35.6749 15.7189C35.6114 15.3473 35.5457 14.9629 35.3655 14.5308C35.1563 14.0267 34.4379 13.6867 33.9071 13.6867Z" fill="#407BFF"/>
<path d="M28.8789 9.54456C28.8627 9.54456 28.8465 9.54456 28.8301 9.54348C27.8837 9.50549 27.7782 8.61158 27.7147 8.07879C27.6939 7.90442 27.6601 7.61284 27.6025 7.55621C27.2045 7.22772 26.9714 6.76446 26.9636 6.28597C26.9568 5.86572 27.1223 5.47575 27.4173 5.21608C27.6539 5.00837 27.9729 4.93776 28.3405 5.01142C29.0867 5.16106 29.8822 5.8745 30.1557 6.4469C30.4347 7.03094 30.3806 8.22771 29.8904 8.95585C29.6299 9.34151 29.2811 9.54456 28.8789 9.54456ZM28.069 5.55013C27.958 5.55013 27.8688 5.5797 27.8009 5.63973C27.6306 5.78955 27.5352 6.02217 27.5394 6.27772C27.5445 6.59618 27.6986 6.89636 27.9733 7.12324C28.2031 7.31284 28.2437 7.65316 28.2865 8.01356C28.3631 8.65639 28.4439 8.96122 28.8536 8.97771C29.071 8.98667 29.2527 8.87664 29.4105 8.64241C29.7744 8.10119 29.8387 7.11589 29.6347 6.68901C29.4254 6.2512 28.7793 5.67844 28.2257 5.56769C28.1742 5.55668 28.1217 5.5508 28.069 5.55013Z" fill="#407BFF"/>
<path d="M18.7311 2.93905C18.2204 2.93905 17.8978 2.71809 17.6499 2.54855C17.4159 2.38852 17.3418 2.35321 17.23 2.39192C16.7984 2.54067 15.785 2.88977 15.3606 2.14551C15.2754 1.99922 15.231 1.83334 15.2319 1.6647C15.2329 1.49606 15.2791 1.33067 15.3659 1.1853C15.5062 0.946409 15.8866 0.545873 16.836 0.545873C17.2 0.545873 17.5897 0.406805 17.9671 0.272397C18.7118 0.00716532 19.6385 -0.322583 20.2848 0.677235C20.5461 1.08153 20.5894 1.55537 20.404 1.97759C20.1961 2.45017 19.7213 2.78744 19.1011 2.90303C18.9792 2.92642 18.8553 2.93848 18.7311 2.93905ZM17.3068 1.81003C17.5798 1.81003 17.796 1.95805 17.9784 2.08279C18.2456 2.26558 18.4978 2.43834 18.9941 2.34587C19.43 2.26468 19.743 2.05393 19.8755 1.75232C19.9847 1.50573 19.9561 1.22472 19.7989 0.981714C19.419 0.392289 18.9761 0.516124 18.1633 0.806446C17.7393 0.95752 17.3005 1.11361 16.8364 1.11361C16.3528 1.11361 15.998 1.24426 15.8626 1.47203C15.8266 1.53202 15.8076 1.6004 15.8076 1.67006C15.8076 1.73972 15.8266 1.80811 15.8626 1.86809C15.9929 2.09623 16.3561 2.093 17.0406 1.85716C17.126 1.82673 17.216 1.8108 17.3068 1.81003Z" fill="#407BFF"/>
<path d="M13.0858 7.5473C12.4079 7.5473 11.8564 6.97222 11.8564 6.26523C11.8564 5.55824 12.4079 4.98315 13.0858 4.98315C13.7637 4.98315 14.315 5.55824 14.315 6.26523C14.315 6.97222 13.7635 7.5473 13.0858 7.5473ZM13.0858 5.55018C12.7255 5.55018 12.4323 5.87097 12.4323 6.26523C12.4323 6.65949 12.7255 6.98028 13.0858 6.98028C13.4461 6.98028 13.7391 6.65949 13.7391 6.26523C13.7391 5.87097 13.4461 5.55018 13.0858 5.55018Z" fill="#407BFF"/>
<path d="M8.44796 12.6371C8.37816 12.6368 8.30872 12.6272 8.24158 12.6084C8.00154 12.5422 7.83702 12.3641 7.79024 12.1198C7.68414 11.5654 8.20882 10.6996 8.60193 10.4087C8.83852 10.2329 9.02051 10.2614 9.13225 10.3166C9.59214 10.5448 9.60324 11.2473 9.37648 11.8236C9.17283 12.3419 8.82832 12.6371 8.44796 12.6371ZM8.91422 10.8847C8.70293 11.0629 8.3344 11.6433 8.35205 11.9799C8.35587 12.0516 8.37025 12.0552 8.39682 12.0625C8.56316 12.1087 8.74261 11.8645 8.83961 11.6188C8.96846 11.2912 8.95827 11.0075 8.91422 10.8847Z" fill="#407BFF"/>
<path d="M5.69405 19.6885C5.30259 19.6885 4.92168 19.5078 4.70711 19.2083C4.22138 18.5307 4.34313 17.6947 5.00157 17.1756C5.42689 16.8404 5.72062 15.9421 5.79779 15.6243C5.80814 15.5819 5.82828 15.5424 5.85663 15.509C5.88499 15.4755 5.9208 15.4489 5.96129 15.4312C6.00178 15.4136 6.04585 15.4054 6.09009 15.4072C6.13433 15.4091 6.17754 15.4209 6.21637 15.4419C6.79492 15.7557 7.76129 16.7374 7.27774 18.2053C6.89792 19.3587 6.23821 19.6211 5.87877 19.6748C5.81764 19.684 5.75589 19.6885 5.69405 19.6885ZM6.23766 16.158C6.08934 16.5937 5.80088 17.2707 5.36119 17.6179C4.84743 18.0227 4.94115 18.5512 5.17756 18.8809C5.27875 19.0221 5.51479 19.1553 5.79287 19.1139C6.1867 19.0551 6.51956 18.6704 6.73031 18.0302C7.04352 17.0806 6.57726 16.4621 6.23766 16.1584V16.158Z" fill="#407BFF"/>
<path d="M38.4782 30.9357C38.2962 30.9357 38.1075 30.8863 37.9175 30.7861C36.5599 30.0692 36.7997 27.8777 37.0986 26.2911C37.296 25.2418 36.9218 24.6517 36.918 24.6461C36.8862 24.5991 36.8693 24.5437 36.8697 24.4871C36.87 24.4305 36.8876 24.3753 36.92 24.3286C36.9525 24.282 36.9984 24.2459 37.0519 24.2252C37.1053 24.2044 37.1639 24.1998 37.2199 24.2121C39.1252 24.6289 39.2739 26.1366 39.3722 27.1345C39.4086 27.4985 39.4421 27.8424 39.5465 27.9918C39.9706 28.5993 39.8144 29.9504 39.2479 30.5735C39.0293 30.8133 38.7634 30.9357 38.4782 30.9357ZM37.6434 24.9461C37.7297 25.294 37.7794 25.7825 37.6642 26.3945C37.2538 28.5766 37.4305 29.8861 38.1894 30.2863C38.4442 30.4212 38.6388 30.3938 38.8184 30.1956C39.2293 29.7434 39.3214 28.6723 39.0713 28.3139C38.8828 28.0436 38.8437 27.6479 38.7984 27.1899C38.7152 26.344 38.6222 25.4011 37.6434 24.9461Z" fill="#407BFF"/>
<path d="M38.7481 35.4103C38.058 35.4103 37.4966 34.7683 37.4966 33.9791C37.4966 33.1898 38.058 32.5479 38.7481 32.5479C39.4382 32.5479 39.9999 33.19 39.9999 33.9791C39.9999 34.7682 39.4379 35.4103 38.7481 35.4103ZM38.7481 33.1149C38.3754 33.1149 38.0724 33.5026 38.0724 33.9791C38.0724 34.4556 38.3754 34.8432 38.7481 34.8432C39.1209 34.8432 39.4241 34.4556 39.4241 33.9791C39.4241 33.5026 39.1209 33.1149 38.7481 33.1149Z" fill="#407BFF"/>
<path d="M3.01989 40.5454C2.99443 40.5453 2.96901 40.5435 2.94381 40.54C2.48884 40.4746 2.16525 39.8339 1.79072 39.0923C1.61455 38.7432 1.31972 38.1594 1.1774 38.0888C0.512772 37.7925 0.0186651 37.1296 0.000465975 36.5126C-0.0131834 36.0131 0.273453 35.5882 0.804686 35.3165C1.20106 35.114 1.61036 35.1081 1.95669 35.2997C2.45644 35.5762 2.77784 36.23 2.83826 37.0936C2.87265 37.5852 3.09305 38.0549 3.30634 38.5094C3.61154 39.1597 3.92711 39.8321 3.43373 40.3524C3.2896 40.5051 3.13873 40.5454 3.01989 40.5454ZM1.41527 35.7268C1.30716 35.7268 1.19221 35.7578 1.07039 35.8198C0.735165 35.9911 0.569007 36.2189 0.576469 36.4972C0.587388 36.8954 0.955739 37.3674 1.41509 37.5725C1.72338 37.7097 1.95451 38.1438 2.30684 38.8404C2.49066 39.2042 2.82625 39.869 3.00951 39.9707L3.01406 39.9658C3.23245 39.7361 3.06866 39.3531 2.78475 38.7472C2.56054 38.2696 2.30666 37.7284 2.26499 37.1328C2.21876 36.4732 1.99855 35.9728 1.67588 35.7943C1.59649 35.7498 1.50664 35.7265 1.41527 35.7268Z" fill="#407BFF"/>
<path d="M22.771 32.5004C23.0011 33.6277 22.2664 34.814 21.203 35.2603C19.7145 35.9275 17.8473 35.1422 17.3976 33.5787C17.294 33.2218 17.2722 32.8477 17.343 32.5001C17.3507 32.4628 17.3712 32.4293 17.4009 32.4052C17.4307 32.381 17.468 32.3675 17.5066 32.3671C17.5452 32.3667 17.5827 32.3793 17.613 32.4028C17.6433 32.4264 17.6645 32.4594 17.6731 32.4965C17.917 33.6434 18.8852 34.5013 20.041 34.4895C21.1888 34.4807 22.1297 33.6343 22.377 32.5003C22.4182 32.2909 22.7301 32.2926 22.7703 32.5003L22.771 32.5004Z" fill="#407BFF"/>
<path d="M25.4128 24.9298C26.6436 24.8064 27.7801 26.1332 27.9512 27.8934C28.1223 29.6537 27.2629 31.1809 26.0323 31.3046C24.8017 31.4282 23.6649 30.1011 23.4939 28.3409C23.3228 26.5807 24.182 25.0537 25.4128 24.9298Z" fill="#407BFF"/>
<path d="M25.4993 25.6673C25.8915 25.8286 26.0604 26.4277 25.8766 27.0054C25.6928 27.5832 25.2256 27.921 24.8334 27.7597C24.4412 27.5985 24.2723 26.9993 24.4562 26.4216C24.64 25.8438 25.1071 25.506 25.4993 25.6673Z" fill="white"/>
<path d="M26.819 29.4515C27.0046 29.587 27.0272 29.9174 26.8694 30.1893C26.7116 30.4612 26.4326 30.5725 26.2475 30.4372C26.0625 30.3019 26.0393 29.9712 26.1971 29.6993C26.3549 29.4275 26.6334 29.3164 26.819 29.4515Z" fill="#8BAEFF"/>
<path d="M14.8575 24.9298C13.6267 24.8064 12.4901 26.1332 12.3191 27.8934C12.148 29.6537 13.0072 31.1809 14.238 31.3045C15.4688 31.4282 16.6053 30.1011 16.7764 28.3409C16.9475 26.5807 16.0885 25.0537 14.8575 24.9298Z" fill="#407BFF"/>
<path d="M14.7709 25.6673C14.3787 25.8286 14.2098 26.4277 14.3937 27.0054C14.5775 27.5832 15.0446 27.921 15.4368 27.7597C15.829 27.5985 15.9979 26.9993 15.8141 26.4216C15.6303 25.8438 15.1631 25.506 14.7709 25.6673Z" fill="white"/>
<path d="M13.4513 29.4515C13.2657 29.587 13.2431 29.9174 13.4009 30.1893C13.5587 30.4612 13.8377 30.5725 14.0228 30.4372C14.2079 30.3019 14.231 29.9712 14.0732 29.6993C13.9154 29.4275 13.637 29.3164 13.4513 29.4515Z" fill="#8BAEFF"/>
</g>
<path d="M48.5762 12.4688V21H46.8242V12.4688H48.5762ZM51.2012 12.4688V13.8457H44.2402V12.4688H51.2012ZM52.2031 12.4688H55.3848C56.0371 12.4688 56.5977 12.5664 57.0664 12.7617C57.5391 12.957 57.9023 13.2461 58.1562 13.6289C58.4102 14.0117 58.5371 14.4824 58.5371 15.041C58.5371 15.498 58.459 15.8906 58.3027 16.2188C58.1504 16.543 57.9336 16.8145 57.6523 17.0332C57.375 17.248 57.0488 17.4199 56.6738 17.5488L56.1172 17.8418H53.3516L53.3398 16.4707H55.3965C55.7051 16.4707 55.9609 16.416 56.1641 16.3066C56.3672 16.1973 56.5195 16.0449 56.6211 15.8496C56.7266 15.6543 56.7793 15.4277 56.7793 15.1699C56.7793 14.8965 56.7285 14.6602 56.627 14.4609C56.5254 14.2617 56.3711 14.1094 56.1641 14.0039C55.957 13.8984 55.6973 13.8457 55.3848 13.8457H53.9609V21H52.2031V12.4688ZM56.9727 21L55.0273 17.1973L56.8848 17.1855L58.8535 20.918V21H56.9727ZM63.3594 13.9277L61.0391 21H59.1699L62.3398 12.4688H63.5293L63.3594 13.9277ZM65.2871 21L62.9609 13.9277L62.7734 12.4688H63.9746L67.1621 21H65.2871ZM65.1816 17.8242V19.2012H60.6758V17.8242H65.1816ZM72.793 18.1699H74.5449C74.5098 18.7441 74.3516 19.2539 74.0703 19.6992C73.793 20.1445 73.4043 20.4922 72.9043 20.7422C72.4082 20.9922 71.8105 21.1172 71.1113 21.1172C70.5645 21.1172 70.0742 21.0234 69.6406 20.8359C69.207 20.6445 68.8359 20.3711 68.5273 20.0156C68.2227 19.6602 67.9902 19.2305 67.8301 18.7266C67.6699 18.2227 67.5898 17.6582 67.5898 17.0332V16.4414C67.5898 15.8164 67.6719 15.252 67.8359 14.748C68.0039 14.2402 68.2422 13.8086 68.5508 13.4531C68.8633 13.0977 69.2363 12.8242 69.6699 12.6328C70.1035 12.4414 70.5879 12.3457 71.123 12.3457C71.834 12.3457 72.4336 12.4746 72.9219 12.7324C73.4141 12.9902 73.7949 13.3457 74.0645 13.7988C74.3379 14.252 74.502 14.7676 74.5566 15.3457H72.7988C72.7793 15.002 72.7109 14.7109 72.5938 14.4727C72.4766 14.2305 72.2988 14.0488 72.0605 13.9277C71.8262 13.8027 71.5137 13.7402 71.123 13.7402C70.8301 13.7402 70.5742 13.7949 70.3555 13.9043C70.1367 14.0137 69.9531 14.1797 69.8047 14.4023C69.6562 14.625 69.5449 14.9062 69.4707 15.2461C69.4004 15.582 69.3652 15.9766 69.3652 16.4297V17.0332C69.3652 17.4746 69.3984 17.8633 69.4648 18.1992C69.5312 18.5312 69.6328 18.8125 69.7695 19.043C69.9102 19.2695 70.0898 19.4414 70.3086 19.5586C70.5312 19.6719 70.7988 19.7285 71.1113 19.7285C71.4785 19.7285 71.7812 19.6699 72.0195 19.5527C72.2578 19.4355 72.4395 19.2617 72.5645 19.0312C72.6934 18.8008 72.7695 18.5137 72.793 18.1699ZM77.457 12.4688V21H75.6992V12.4688H77.457ZM82.5664 12.4688L79.1855 16.6816L77.2344 18.7793L76.918 17.1152L78.2363 15.3105L80.4102 12.4688H82.5664ZM80.5684 21L78.0547 17.0566L79.3555 15.9668L82.6484 21H80.5684ZM89.0527 19.6289V21H84.5117V19.6289H89.0527ZM85.0859 12.4688V21H83.3281V12.4688H85.0859ZM88.4609 15.9434V17.2793H84.5117V15.9434H88.4609ZM89.0469 12.4688V13.8457H84.5117V12.4688H89.0469ZM90.0781 12.4688H93.2598C93.9121 12.4688 94.4727 12.5664 94.9414 12.7617C95.4141 12.957 95.7773 13.2461 96.0312 13.6289C96.2852 14.0117 96.4121 14.4824 96.4121 15.041C96.4121 15.498 96.334 15.8906 96.1777 16.2188C96.0254 16.543 95.8086 16.8145 95.5273 17.0332C95.25 17.248 94.9238 17.4199 94.5488 17.5488L93.9922 17.8418H91.2266L91.2148 16.4707H93.2715C93.5801 16.4707 93.8359 16.416 94.0391 16.3066C94.2422 16.1973 94.3945 16.0449 94.4961 15.8496C94.6016 15.6543 94.6543 15.4277 94.6543 15.1699C94.6543 14.8965 94.6035 14.6602 94.502 14.4609C94.4004 14.2617 94.2461 14.1094 94.0391 14.0039C93.832 13.8984 93.5723 13.8457 93.2598 13.8457H91.8359V21H90.0781V12.4688ZM94.8477 21L92.9023 17.1973L94.7598 17.1855L96.7285 20.918V21H94.8477ZM51.7695 30.5352V30.9395C51.7695 31.5879 51.6816 32.1699 51.5059 32.6855C51.3301 33.2012 51.082 33.6406 50.7617 34.0039C50.4414 34.3633 50.0586 34.6387 49.6133 34.8301C49.1719 35.0215 48.6816 35.1172 48.1426 35.1172C47.6074 35.1172 47.1172 35.0215 46.6719 34.8301C46.2305 34.6387 45.8477 34.3633 45.5234 34.0039C45.1992 33.6406 44.9473 33.2012 44.7676 32.6855C44.5918 32.1699 44.5039 31.5879 44.5039 30.9395V30.5352C44.5039 29.8828 44.5918 29.3008 44.7676 28.7891C44.9434 28.2734 45.1914 27.834 45.5117 27.4707C45.8359 27.1074 46.2188 26.8301 46.6602 26.6387C47.1055 26.4473 47.5957 26.3516 48.1309 26.3516C48.6699 26.3516 49.1602 26.4473 49.6016 26.6387C50.0469 26.8301 50.4297 27.1074 50.75 27.4707C51.0742 27.834 51.3242 28.2734 51.5 28.7891C51.6797 29.3008 51.7695 29.8828 51.7695 30.5352ZM49.9941 30.9395V30.5234C49.9941 30.0703 49.9531 29.6719 49.8711 29.3281C49.7891 28.9844 49.668 28.6953 49.5078 28.4609C49.3477 28.2266 49.1523 28.0508 48.9219 27.9336C48.6914 27.8125 48.4277 27.752 48.1309 27.752C47.834 27.752 47.5703 27.8125 47.3398 27.9336C47.1133 28.0508 46.9199 28.2266 46.7598 28.4609C46.6035 28.6953 46.4844 28.9844 46.4023 29.3281C46.3203 29.6719 46.2793 30.0703 46.2793 30.5234V30.9395C46.2793 31.3887 46.3203 31.7871 46.4023 32.1348C46.4844 32.4785 46.6055 32.7695 46.7656 33.0078C46.9258 33.2422 47.1211 33.4199 47.3516 33.541C47.582 33.6621 47.8457 33.7227 48.1426 33.7227C48.4395 33.7227 48.7031 33.6621 48.9336 33.541C49.1641 33.4199 49.3574 33.2422 49.5137 33.0078C49.6699 32.7695 49.7891 32.4785 49.8711 32.1348C49.9531 31.7871 49.9941 31.3887 49.9941 30.9395ZM54.793 26.4688V35H53.0352V26.4688H54.793ZM58.1914 30.1133V31.4844H54.3125V30.1133H58.1914ZM58.6016 26.4688V27.8457H54.3125V26.4688H58.6016ZM64.666 33.6465L66.3652 26.4688H67.3145L67.5312 27.6641L65.7207 35H64.7012L64.666 33.6465ZM63.793 26.4688L65.1992 33.6465L65.082 35H63.9453L62.0527 26.4688H63.793ZM69.0254 33.6172L70.4141 26.4688H72.1543L70.2676 35H69.1309L69.0254 33.6172ZM67.8477 26.4688L69.5586 33.6758L69.5117 35H68.4922L66.6699 27.6582L66.9043 26.4688H67.8477ZM76.3203 27.9277L74 35H72.1309L75.3008 26.4688H76.4902L76.3203 27.9277ZM78.248 35L75.9219 27.9277L75.7344 26.4688H76.9355L80.123 35H78.248ZM78.1426 31.8242V33.2012H73.6367V31.8242H78.1426ZM84.002 26.4688V35H82.25V26.4688H84.002ZM86.627 26.4688V27.8457H79.666V26.4688H86.627ZM93.3535 33.6289V35H88.8125V33.6289H93.3535ZM89.3867 26.4688V35H87.6289V26.4688H89.3867ZM92.7617 29.9434V31.2793H88.8125V29.9434H92.7617ZM93.3477 26.4688V27.8457H88.8125V26.4688H93.3477ZM94.3789 26.4688H97.5605C98.2129 26.4688 98.7734 26.5664 99.2422 26.7617C99.7148 26.957 100.078 27.2461 100.332 27.6289C100.586 28.0117 100.713 28.4824 100.713 29.041C100.713 29.498 100.635 29.8906 100.479 30.2188C100.326 30.543 100.109 30.8145 99.8281 31.0332C99.5508 31.248 99.2246 31.4199 98.8496 31.5488L98.293 31.8418H95.5273L95.5156 30.4707H97.5723C97.8809 30.4707 98.1367 30.416 98.3398 30.3066C98.543 30.1973 98.6953 30.0449 98.7969 29.8496C98.9023 29.6543 98.9551 29.4277 98.9551 29.1699C98.9551 28.8965 98.9043 28.6602 98.8027 28.4609C98.7012 28.2617 98.5469 28.1094 98.3398 28.0039C98.1328 27.8984 97.873 27.8457 97.5605 27.8457H96.1367V35H94.3789V26.4688ZM99.1484 35L97.2031 31.1973L99.0605 31.1855L101.029 34.918V35H99.1484Z" fill="#407BFF"/>
<defs>
<clipPath id="clip0_103_191">
<rect width="40" height="48" fill="white"/>
</clipPath>
</defs>
</svg>
